<svg width="80" height="80" viewBox="0 0 80 80" fill="none" xmlns="http://www.w3.org/2000/svg">
<path d="M39.4445 4.44446C20.1163 4.44446 4.44446 20.1163 4.44446 39.4445C4.44446 58.7726 20.1163 74.4445 39.4445 74.4445C58.7726 74.4445 74.4445 58.7726 74.4445 39.4445C74.4445 20.1163 58.7726 4.44446 39.4445 4.44446ZM52.3663 52.7413L47.2101 52.7179L39.4445 43.4601L31.6866 52.7101L26.5226 52.7335C26.1788 52.7335 25.8976 52.4601 25.8976 52.1085C25.8976 51.9601 25.9523 51.8195 26.046 51.7023L36.2101 39.5929L26.046 27.4913C25.9516 27.3768 25.8992 27.2335 25.8976 27.0851C25.8976 26.7413 26.1788 26.4601 26.5226 26.4601L31.6866 26.4835L39.4445 35.7413L47.2023 26.4913L52.3585 26.4679C52.7023 26.4679 52.9835 26.7413 52.9835 27.0929C52.9835 27.2413 52.9288 27.382 52.8351 27.4991L42.6866 39.6007L52.8429 51.7101C52.9366 51.8273 52.9913 51.9679 52.9913 52.1163C52.9913 52.4601 52.7101 52.7413 52.3663 52.7413Z" fill="#FF4D4F"/>
</svg>
